<svg xmlns="http://www.w3.org/2000/svg" xmlns:xlink="http://www.w3.org/1999/xlink" width="150" zoomAndPan="magnify" viewBox="0 0 375 374.999991" height="150" preserveAspectRatio="xMidYMid meet" version="1.0"><defs><g/><clipPath id="id1">


<path d="M 89.058594 89.058594 L 285.785156 89.058594 L 285.785156 285.785156 L 89.058594 285.785156 Z M 89.058594 89.058594 " clip-rule="nonzero"/></clipPath><clipPath id="id3">
<path d="M 159.625 135 L 199 135 L 199 167.148438 L 159.625 167.148438 Z M 159.625 135 " clip-rule="nonzero"/></clipPath><clipPath id="id4"><path d="M 95 210.851562 L 278 210.851562 L 278 224.351562 L 95 224.351562 Z M 95 210.851562 " clip-rule="nonzero"/></clipPath><clipPath id="id5"><path d="M 148.003906 238.699219 L 253 238.699219 L 253 256.699219 L 148.003906 256.699219 Z M 148.003906 238.699219 " clip-rule="nonzero"/></clipPath><clipPath id="id6"><path d="M 121.777344 238.699219 L 226.4375 238.699219 L 226.4375 256.699219 L 121.777344 256.699219 Z M 121.777344 238.699219 " clip-rule="nonzero"/></clipPath></defs><rect x="-37.5" width="150" fill="#181818" y="-37.499999" height="149.999989" fill-opacity="1"/><rect x="-37.5" width="150" fill="#ffffff" y="-37.499999" height="149.999989" fill-opacity="1"/><rect x="-37.5" width="150" fill="#181818" y="-37.499999" height="149.999989" fill-opacity="1"/><rect x="-37.5" width="150" fill="#ffffff" y="-37.499999" height="149.999989" fill-opacity="1"/>

<g clip-path="url(#id3)"><path fill="#primary" d="M 195.441406 139.917969 C 193.890625 139.800781 192.441406 139.144531 191.382812 138.082031 L 189.261719 135.949219 C 189.261719 135.949219 187.773438 136.9375 189.949219 140.28125 C 190.957031 141.828125 190.789062 143.453125 189.835938 146.019531 C 189.417969 147.136719 188.863281 147.808594 188.164062 148.378906 C 185.46875 150.574219 181.460938 150.640625 178.609375 148.625 C 177.234375 147.648438 175.558594 146.578125 173.613281 145.535156 C 167.574219 142.296875 159.625 147.9375 159.625 147.9375 C 159.625 147.9375 163.175781 147.464844 165.671875 148.980469 C 165.6875 148.988281 165.703125 148.996094 165.71875 149.007812 C 168.125 150.429688 169.644531 152.765625 171.273438 154.234375 C 172.902344 155.703125 175.578125 156.160156 175.578125 156.160156 C 175.578125 156.160156 173.207031 156.238281 171.722656 155.519531 C 170.359375 154.863281 169.140625 153.570312 168.058594 152.324219 C 169.039062 154.945312 170.820312 159.359375 176.941406 160.617188 C 178.207031 160.878906 179.382812 160.972656 180.476562 160.945312 C 181.125 164.332031 182.984375 167.140625 182.984375 167.140625 C 182.984375 167.140625 182.828125 163.796875 184.6875 161.632812 C 184.699219 161.617188 184.710938 161.605469 184.722656 161.589844 C 186.476562 159.496094 189.117188 158.316406 190.84375 156.949219 C 192.570312 155.582031 193.320312 153.140625 193.320312 153.140625 C 193.320312 153.140625 193.171875 155.351562 192.261719 156.65625 C 191.429688 157.855469 189.925781 158.863281 188.492188 159.746094 C 191.386719 159.089844 196.273438 157.871094 198.214844 152.316406 C 200.871094 144.710938 195.441406 139.917969 195.441406 139.917969 " fill-opacity="1" fill-rule="nonzero"/></g><path fill="#E32227" d="M 197.402344 137.132812 C 196.804688 135.390625 195.695312 134.605469 194.851562 134.441406 C 194.007812 134.277344 193.785156 133.164062 193.785156 133.164062 C 193.785156 133.164062 193.265625 131.925781 191.472656 132.085938 C 189.683594 132.25 189.203125 133.730469 189.621094 134.792969 C 190.039062 135.859375 191.808594 137.980469 193.671875 138.722656 C 195.535156 139.464844 196.148438 138.929688 196.699219 139.972656 C 196.945312 140.433594 197.050781 140.628906 197.089844 140.707031 C 197.089844 140.707031 198 138.878906 197.402344 137.132812 " fill-opacity="1" fill-rule="nonzero"/><path fill="#E32227" d="M 188.617188 128.164062 C 187.742188 128.417969 186.355469 125.804688 185.871094 127.960938 C 185.386719 130.117188 189.257812 131.003906 189.257812 131.003906 C 189.257812 131.003906 189.550781 130.957031 189.96875 130.917969 C 190.449219 130.820312 190.941406 130.78125 191.433594 130.820312 C 193.503906 130.976562 195.089844 132.226562 195.800781 133.878906 C 196.433594 133.566406 196.871094 133.332031 196.871094 133.332031 C 197.019531 133.273438 197.160156 133.207031 197.296875 133.132812 C 198.390625 132.503906 198.402344 132.171875 197.578125 131.261719 C 197.160156 130.796875 196.433594 131.101562 195.824219 131.511719 C 196.089844 130.835938 196.234375 130.109375 196.035156 129.507812 C 195.488281 127.882812 193.707031 127.820312 193.53125 128.597656 C 193.351562 129.375 192.261719 125.4375 190.898438 124.386719 C 188.96875 122.902344 186.945312 123.714844 187.40625 125.765625 C 187.789062 127.457031 189.492188 127.910156 188.617188 128.164062 " fill-opacity="1" fill-rule="nonzero"/><path fill="#ffffff" d="M 195.933594 134.414062 L 197.238281 135.339844 L 199.183594 134.839844 L 197.507812 133.707031 L 195.933594 134.414062 " fill-opacity="1" fill-rule="nonzero"/><g fill="#ffffff" fill-opacity="1"><g transform="translate(102.167448, 201.749987)"><g><path d="M 15.019531 -28.054688 C 15.019531 -29.40625 14.808594 -29.574219 13.5 -29.65625 L 6.328125 -29.65625 C 4.597656 -29.65625 3.628906 -29.65625 3.289062 -29.617188 C 2.363281 -29.617188 2.109375 -29.363281 2.066406 -28.433594 C 2.023438 -28.265625 2.023438 -27.800781 2.023438 -27.085938 L 2.023438 -16.367188 L 0.335938 -15.398438 C 0.125 -15.273438 0 -15.0625 0 -14.808594 C 0 -14.511719 0.125 -14.34375 0.335938 -14.21875 L 2.023438 -13.246094 L 2.023438 -2.277344 C 2.023438 0 2.066406 0 4.386719 0 C 6.707031 0 6.707031 0 6.707031 -2.320312 L 6.707031 -9.449219 C 6.707031 -11.222656 6.960938 -12.148438 7.890625 -12.234375 C 8.140625 -12.277344 8.648438 -12.277344 9.40625 -12.320312 C 11.011719 -12.320312 11.8125 -12.359375 11.726562 -12.359375 C 12.910156 -12.402344 12.742188 -13.457031 12.742188 -15.144531 C 12.699219 -17.210938 12.65625 -17.296875 10.546875 -17.296875 C 7.847656 -17.339844 7.003906 -17.085938 6.792969 -18.648438 C 6.75 -18.941406 6.707031 -19.40625 6.707031 -19.996094 C 6.75 -21.894531 6.75 -23.078125 6.792969 -23.5 C 6.875 -25.144531 8.226562 -24.933594 9.324219 -24.933594 L 11.136719 -24.976562 L 12.953125 -24.976562 C 14.007812 -24.976562 14.890625 -24.847656 14.976562 -25.859375 C 15.0625 -26.535156 15.0625 -27.253906 15.019531 -28.054688 Z M 15.019531 -28.054688 "/></g></g></g><g fill="#ffffff" fill-opacity="1"><g transform="translate(118.704972, 201.749987)"><g><path d="M 5.992188 -36.957031 C 6.835938 -36.871094 7.339844 -36.871094 7.382812 -36.828125 C 7.71875 -36.828125 7.972656 -36.578125 8.015625 -36.195312 C 8.140625 -35.269531 8.140625 -34.339844 8.015625 -33.414062 C 8.015625 -33.03125 7.71875 -32.78125 7.382812 -32.738281 C 6.328125 -32.652344 5.398438 -32.652344 4.554688 -32.78125 C 4.261719 -32.820312 4.007812 -33.074219 3.921875 -33.453125 C 3.796875 -34.296875 3.796875 -35.226562 3.921875 -36.238281 C 3.964844 -36.617188 4.21875 -36.828125 4.554688 -36.871094 C 4.640625 -36.871094 5.105469 -36.871094 5.992188 -36.957031 Z M 13.164062 -36.957031 C 14.007812 -36.871094 14.511719 -36.871094 14.554688 -36.828125 C 14.890625 -36.828125 15.144531 -36.578125 15.1875 -36.195312 C 15.3125 -35.269531 15.3125 -34.339844 15.1875 -33.414062 C 15.1875 -33.03125 14.890625 -32.78125 14.554688 -32.738281 C 13.5 -32.652344 12.570312 -32.652344 11.726562 -32.78125 C 11.433594 -32.820312 11.179688 -33.074219 11.09375 -33.453125 C 10.96875 -34.296875 10.96875 -35.226562 11.09375 -36.238281 C 11.136719 -36.617188 11.390625 -36.828125 11.726562 -36.871094 C 11.8125 -36.871094 12.277344 -36.871094 13.164062 -36.957031 Z M 16.707031 -6.917969 L 16.707031 -27.210938 C 16.707031 -28.351562 16.789062 -29.40625 15.863281 -29.488281 C 15.273438 -29.53125 14.597656 -29.53125 13.878906 -29.53125 C 11.769531 -29.53125 11.726562 -29.488281 11.726562 -27.421875 L 11.726562 -8.773438 C 11.726562 -6.835938 11.433594 -4.976562 9.535156 -4.640625 C 8.015625 -4.429688 7.171875 -5.992188 7.128906 -7.085938 C 7.085938 -7.550781 7.085938 -8.101562 7.085938 -8.734375 L 7.085938 -26.875 C 7.085938 -28.433594 7.257812 -29.40625 6.117188 -29.488281 C 5.273438 -29.574219 2.867188 -29.617188 2.40625 -29.195312 C 2.195312 -28.984375 2.109375 -28.351562 2.109375 -27.335938 L 2.109375 -7.71875 C 2.109375 -6.75 2.277344 -5.527344 2.617188 -4.09375 C 2.785156 -3.5 3.078125 -2.953125 3.417969 -2.445312 C 5.695312 0.507812 9.15625 1.097656 12.699219 -0.125 C 12.953125 -0.210938 13.203125 -0.335938 13.414062 -0.546875 C 15.652344 -2.320312 16.789062 -4.429688 16.707031 -6.917969 Z M 16.707031 -6.917969 "/></g></g></g><g fill="#ffffff" fill-opacity="1"><g transform="translate(137.520626, 201.749987)"><g><path d="M 5.992188 -36.957031 C 6.835938 -36.871094 7.339844 -36.871094 7.382812 -36.828125 C 7.71875 -36.828125 7.972656 -36.578125 8.015625 -36.195312 C 8.140625 -35.269531 8.140625 -34.339844 8.015625 -33.414062 C 8.015625 -33.03125 7.71875 -32.78125 7.382812 -32.738281 C 6.328125 -32.652344 5.398438 -32.652344 4.554688 -32.78125 C 4.261719 -32.820312 4.007812 -33.074219 3.921875 -33.453125 C 3.796875 -34.296875 3.796875 -35.226562 3.921875 -36.238281 C 3.964844 -36.617188 4.21875 -36.828125 4.554688 -36.871094 C 4.640625 -36.871094 5.105469 -36.871094 5.992188 -36.957031 Z M 13.164062 -36.957031 C 14.007812 -36.871094 14.511719 -36.871094 14.554688 -36.828125 C 14.890625 -36.828125 15.144531 -36.578125 15.1875 -36.195312 C 15.3125 -35.269531 15.3125 -34.339844 15.1875 -33.414062 C 15.1875 -33.03125 14.890625 -32.78125 14.554688 -32.738281 C 13.5 -32.652344 12.570312 -32.652344 11.726562 -32.78125 C 11.433594 -32.820312 11.179688 -33.074219 11.09375 -33.453125 C 10.96875 -34.296875 10.96875 -35.226562 11.09375 -36.238281 C 11.136719 -36.617188 11.390625 -36.828125 11.726562 -36.871094 C 11.8125 -36.871094 12.277344 -36.871094 13.164062 -36.957031 Z M 16.707031 -6.917969 L 16.707031 -27.210938 C 16.707031 -28.351562 16.789062 -29.40625 15.863281 -29.488281 C 15.273438 -29.53125 14.597656 -29.53125 13.878906 -29.53125 C 11.769531 -29.53125 11.726562 -29.488281 11.726562 -27.421875 L 11.726562 -8.773438 C 11.726562 -6.835938 11.433594 -4.976562 9.535156 -4.640625 C 8.015625 -4.429688 7.171875 -5.992188 7.128906 -7.085938 C 7.085938 -7.550781 7.085938 -8.101562 7.085938 -8.734375 L 7.085938 -26.875 C 7.085938 -28.433594 7.257812 -29.40625 6.117188 -29.488281 C 5.273438 -29.574219 2.867188 -29.617188 2.40625 -29.195312 C 2.195312 -28.984375 2.109375 -28.351562 2.109375 -27.335938 L 2.109375 -7.71875 C 2.109375 -6.75 2.277344 -5.527344 2.617188 -4.09375 C 2.785156 -3.5 3.078125 -2.953125 3.417969 -2.445312 C 5.695312 0.507812 9.15625 1.097656 12.699219 -0.125 C 12.953125 -0.210938 13.203125 -0.335938 13.414062 -0.546875 C 15.652344 -2.320312 16.789062 -4.429688 16.707031 -6.917969 Z M 16.707031 -6.917969 "/></g></g></g><g fill="#ffffff" fill-opacity="1"><g transform="translate(156.33628, 201.749987)"><g><path d="M 16.539062 -2.320312 C 15.398438 -6.792969 14.640625 -9.660156 14.257812 -11.011719 C 14.007812 -12.066406 14.132812 -12.953125 14.722656 -13.667969 C 15.523438 -14.679688 15.945312 -15.695312 15.945312 -16.664062 C 15.988281 -20.546875 15.988281 -23.035156 15.945312 -24.171875 C 15.863281 -26.535156 14.175781 -28.519531 11.898438 -29.066406 C 10.546875 -29.445312 9.324219 -29.617188 8.269531 -29.574219 L 6.03125 -29.574219 C 3.585938 -29.574219 2.363281 -29.65625 1.984375 -29.277344 C 1.773438 -29.066406 1.6875 -28.433594 1.6875 -27.378906 L 1.6875 -2.445312 C 1.6875 -1.054688 1.519531 -0.0429688 2.65625 0 C 3.671875 0.0429688 4.683594 0.0429688 5.652344 0 C 6.835938 -0.0429688 6.664062 -1.011719 6.664062 -2.277344 L 6.664062 -8.226562 C 6.707031 -9.535156 6.625 -10.671875 7.847656 -10.84375 C 9.070312 -11.011719 9.28125 -9.914062 9.449219 -9.113281 L 10.25 -5.695312 C 10.671875 -4.050781 10.96875 -2.910156 11.09375 -2.277344 C 11.347656 -1.097656 11.476562 -0.125 12.402344 0 C 13.796875 0.0859375 15.0625 0.0859375 16.199219 -0.0429688 C 16.664062 -0.0859375 16.917969 -0.464844 16.832031 -0.886719 C 16.789062 -1.265625 16.707031 -1.773438 16.539062 -2.320312 Z M 11.265625 -22.105469 L 11.265625 -18.308594 C 11.265625 -18.226562 11.222656 -18.054688 11.179688 -17.804688 C 10.84375 -16.242188 9.367188 -15.3125 7.804688 -15.695312 C 7.085938 -15.90625 6.75 -16.328125 6.75 -17.042969 C 6.75 -17.128906 6.707031 -18.308594 6.707031 -20.164062 C 6.707031 -23.667969 6.242188 -24.804688 8.605469 -24.511719 C 8.773438 -24.46875 8.945312 -24.425781 9.238281 -24.382812 C 10.632812 -24.046875 11.179688 -23.457031 11.265625 -22.105469 Z M 11.265625 -22.105469 "/></g></g></g><g fill="#ffffff" fill-opacity="1"><g transform="translate(174.012869, 201.749987)"><g><path d="M 15.609375 -27.085938 C 14.300781 -28.773438 12.65625 -29.617188 10.714844 -29.65625 L 9.195312 -29.65625 C 5.359375 -29.699219 2.828125 -26.070312 2.828125 -22.90625 L 2.867188 -6.664062 C 2.867188 -5.652344 2.953125 -4.894531 3.164062 -4.386719 C 5.359375 0.675781 11.09375 1.433594 14.429688 -1.308594 C 17.804688 -4.050781 17 -5.863281 17 -14.976562 C 17 -16.074219 17 -16.539062 16.664062 -16.875 C 16.539062 -17 16.285156 -17.128906 15.90625 -17.128906 C 15.523438 -17.171875 14.765625 -17.171875 13.625 -17.171875 C 12.148438 -17.171875 11.222656 -17.171875 10.84375 -17.128906 C 10.167969 -17.085938 9.828125 -16.75 9.789062 -16.117188 C 9.746094 -15.863281 9.746094 -14.976562 9.746094 -13.5 C 9.746094 -12.742188 10.082031 -12.320312 10.757812 -12.234375 C 11.347656 -12.148438 11.726562 -11.855469 11.8125 -11.347656 C 12.148438 -9.828125 12.148438 -8.269531 11.855469 -6.625 C 11.8125 -6.582031 11.769531 -6.453125 11.726562 -6.328125 C 10.714844 -4.472656 8.4375 -4.554688 7.804688 -6.625 C 7.550781 -7.339844 7.46875 -8.140625 7.46875 -9.027344 L 7.46875 -20.839844 C 7.46875 -22.867188 8.015625 -24.46875 9.492188 -24.679688 C 10.96875 -24.890625 11.980469 -23.5 12.023438 -22.105469 C 12.148438 -19.152344 11.855469 -19.238281 12.992188 -19.152344 C 14.007812 -19.109375 14.976562 -19.109375 15.945312 -19.152344 C 17.210938 -19.238281 16.960938 -20.292969 16.960938 -21.515625 C 16.960938 -22.105469 16.960938 -22.527344 17 -22.824219 C 17.085938 -24.34375 16.621094 -25.734375 15.609375 -27.085938 Z M 15.609375 -27.085938 "/></g></g></g><g fill="#ffffff" fill-opacity="1"><g transform="translate(193.925404, 201.749987)"><g><path d="M 5.992188 -36.957031 C 6.835938 -36.871094 7.339844 -36.871094 7.382812 -36.828125 C 7.71875 -36.828125 7.972656 -36.578125 8.015625 -36.195312 C 8.140625 -35.269531 8.140625 -34.339844 8.015625 -33.414062 C 8.015625 -33.03125 7.71875 -32.78125 7.382812 -32.738281 C 6.328125 -32.652344 5.398438 -32.652344 4.554688 -32.78125 C 4.261719 -32.820312 4.007812 -33.074219 3.921875 -33.453125 C 3.796875 -34.296875 3.796875 -35.226562 3.921875 -36.238281 C 3.964844 -36.617188 4.21875 -36.828125 4.554688 -36.871094 C 4.640625 -36.871094 5.105469 -36.871094 5.992188 -36.957031 Z M 13.164062 -36.957031 C 14.007812 -36.871094 14.511719 -36.871094 14.554688 -36.828125 C 14.890625 -36.828125 15.144531 -36.578125 15.1875 -36.195312 C 15.3125 -35.269531 15.3125 -34.339844 15.1875 -33.414062 C 15.1875 -33.03125 14.890625 -32.78125 14.554688 -32.738281 C 13.5 -32.652344 12.570312 -32.652344 11.726562 -32.78125 C 11.433594 -32.820312 11.179688 -33.074219 11.09375 -33.453125 C 10.96875 -34.296875 10.96875 -35.226562 11.09375 -36.238281 C 11.136719 -36.617188 11.390625 -36.828125 11.726562 -36.871094 C 11.8125 -36.871094 12.277344 -36.871094 13.164062 -36.957031 Z M 16.707031 -6.917969 L 16.707031 -27.210938 C 16.707031 -28.351562 16.789062 -29.40625 15.863281 -29.488281 C 15.273438 -29.53125 14.597656 -29.53125 13.878906 -29.53125 C 11.769531 -29.53125 11.726562 -29.488281 11.726562 -27.421875 L 11.726562 -8.773438 C 11.726562 -6.835938 11.433594 -4.976562 9.535156 -4.640625 C 8.015625 -4.429688 7.171875 -5.992188 7.128906 -7.085938 C 7.085938 -7.550781 7.085938 -8.101562 7.085938 -8.734375 L 7.085938 -26.875 C 7.085938 -28.433594 7.257812 -29.40625 6.117188 -29.488281 C 5.273438 -29.574219 2.867188 -29.617188 2.40625 -29.195312 C 2.195312 -28.984375 2.109375 -28.351562 2.109375 -27.335938 L 2.109375 -7.71875 C 2.109375 -6.75 2.277344 -5.527344 2.617188 -4.09375 C 2.785156 -3.5 3.078125 -2.953125 3.417969 -2.445312 C 5.695312 0.507812 9.15625 1.097656 12.699219 -0.125 C 12.953125 -0.210938 13.203125 -0.335938 13.414062 -0.546875 C 15.652344 -2.320312 16.789062 -4.429688 16.707031 -6.917969 Z M 16.707031 -6.917969 "/></g></g></g><g fill="#ffffff" fill-opacity="1"><g transform="translate(212.741058, 201.749987)"><g><path d="M 15.609375 -27.085938 C 14.300781 -28.773438 12.65625 -29.617188 10.714844 -29.65625 L 9.195312 -29.65625 C 5.359375 -29.699219 2.828125 -26.070312 2.828125 -22.90625 L 2.867188 -6.664062 C 2.867188 -5.652344 2.953125 -4.894531 3.164062 -4.386719 C 5.359375 0.675781 11.09375 1.433594 14.429688 -1.308594 C 17.804688 -4.050781 17 -5.863281 17 -14.976562 C 17 -16.074219 17 -16.539062 16.664062 -16.875 C 16.539062 -17 16.285156 -17.128906 15.90625 -17.128906 C 15.523438 -17.171875 14.765625 -17.171875 13.625 -17.171875 C 12.148438 -17.171875 11.222656 -17.171875 10.84375 -17.128906 C 10.167969 -17.085938 9.828125 -16.75 9.789062 -16.117188 C 9.746094 -15.863281 9.746094 -14.976562 9.746094 -13.5 C 9.746094 -12.742188 10.082031 -12.320312 10.757812 -12.234375 C 11.347656 -12.148438 11.726562 -11.855469 11.8125 -11.347656 C 12.148438 -9.828125 12.148438 -8.269531 11.855469 -6.625 C 11.8125 -6.582031 11.769531 -6.453125 11.726562 -6.328125 C 10.714844 -4.472656 8.4375 -4.554688 7.804688 -6.625 C 7.550781 -7.339844 7.46875 -8.140625 7.46875 -9.027344 L 7.46875 -20.839844 C 7.46875 -22.867188 8.015625 -24.46875 9.492188 -24.679688 C 10.96875 -24.890625 11.980469 -23.5 12.023438 -22.105469 C 12.148438 -19.152344 11.855469 -19.238281 12.992188 -19.152344 C 14.007812 -19.109375 14.976562 -19.109375 15.945312 -19.152344 C 17.210938 -19.238281 16.960938 -20.292969 16.960938 -21.515625 C 16.960938 -22.105469 16.960938 -22.527344 17 -22.824219 C 17.085938 -24.34375 16.621094 -25.734375 15.609375 -27.085938 Z M 15.609375 -27.085938 "/></g></g></g><g fill="#ffffff" fill-opacity="1"><g transform="translate(232.653593, 201.749987)"><g><path d="M 15.609375 -27.085938 C 14.300781 -28.773438 12.65625 -29.617188 10.714844 -29.65625 L 9.195312 -29.65625 C 5.359375 -29.699219 2.828125 -26.070312 2.828125 -22.90625 L 2.867188 -6.664062 C 2.867188 -5.652344 2.953125 -4.894531 3.164062 -4.386719 C 5.359375 0.675781 11.09375 1.433594 14.429688 -1.308594 C 17.804688 -4.050781 17 -5.863281 17 -14.976562 C 17 -16.074219 17 -16.539062 16.664062 -16.875 C 16.539062 -17 16.285156 -17.128906 15.90625 -17.128906 C 15.523438 -17.171875 14.765625 -17.171875 13.625 -17.171875 C 12.148438 -17.171875 11.222656 -17.171875 10.84375 -17.128906 C 10.167969 -17.085938 9.828125 -16.75 9.789062 -16.117188 C 9.746094 -15.863281 9.746094 -14.976562 9.746094 -13.5 C 9.746094 -12.742188 10.082031 -12.320312 10.757812 -12.234375 C 11.347656 -12.148438 11.726562 -11.855469 11.8125 -11.347656 C 12.148438 -9.828125 12.148438 -8.269531 11.855469 -6.625 C 11.8125 -6.582031 11.769531 -6.453125 11.726562 -6.328125 C 10.714844 -4.472656 8.4375 -4.554688 7.804688 -6.625 C 7.550781 -7.339844 7.46875 -8.140625 7.46875 -9.027344 L 7.46875 -20.839844 C 7.46875 -22.867188 8.015625 -24.46875 9.492188 -24.679688 C 10.96875 -24.890625 11.980469 -23.5 12.023438 -22.105469 C 12.148438 -19.152344 11.855469 -19.238281 12.992188 -19.152344 C 14.007812 -19.109375 14.976562 -19.109375 15.945312 -19.152344 C 17.210938 -19.238281 16.960938 -20.292969 16.960938 -21.515625 C 16.960938 -22.105469 16.960938 -22.527344 17 -22.824219 C 17.085938 -24.34375 16.621094 -25.734375 15.609375 -27.085938 Z M 15.609375 -27.085938 "/></g></g></g><g fill="#ffffff" fill-opacity="1"><g transform="translate(252.565875, 201.749987)"><g><path d="M 7.71875 -38.476562 C 9.027344 -38.476562 9.535156 -38.433594 9.914062 -38.179688 C 10.378906 -37.96875 10.503906 -37.632812 10.925781 -36.449219 C 11.09375 -35.859375 11.855469 -33.707031 12.023438 -33.285156 C 12.148438 -32.90625 12.234375 -32.570312 12.320312 -32.273438 C 12.320312 -31.976562 12.109375 -31.683594 11.6875 -31.640625 C 10.882812 -31.472656 10.421875 -31.472656 9.492188 -31.597656 C 8.773438 -31.726562 8.226562 -32.570312 8.015625 -32.820312 C 7.257812 -34.003906 6.371094 -35.859375 5.652344 -37 C 5.527344 -37.210938 5.359375 -37.503906 5.273438 -37.800781 C 5.1875 -38.054688 5.484375 -38.347656 5.820312 -38.347656 C 5.90625 -38.390625 6.582031 -38.433594 7.71875 -38.476562 Z M 18.351562 -15.3125 L 16.664062 -16.285156 L 16.664062 -27.210938 C 16.664062 -28.351562 16.75 -29.40625 15.820312 -29.488281 C 15.230469 -29.53125 14.554688 -29.53125 13.835938 -29.53125 C 11.726562 -29.53125 11.6875 -29.488281 11.6875 -27.421875 L 11.6875 -8.773438 C 11.6875 -6.835938 11.390625 -4.976562 9.492188 -4.640625 C 7.972656 -4.429688 7.128906 -5.992188 7.085938 -7.085938 C 7.046875 -7.550781 7.046875 -8.101562 7.046875 -8.734375 L 7.046875 -26.875 C 7.046875 -28.433594 7.214844 -29.40625 6.074219 -29.488281 C 5.230469 -29.574219 2.828125 -29.617188 2.363281 -29.195312 C 2.152344 -28.984375 2.066406 -28.351562 2.066406 -27.335938 L 2.066406 -16.285156 L 0.378906 -15.3125 C 0.125 -15.1875 0 -15.019531 0 -14.722656 C 0 -14.46875 0.125 -14.257812 0.378906 -14.132812 L 2.066406 -13.164062 L 2.066406 -7.71875 C 2.066406 -6.75 2.234375 -5.527344 2.574219 -4.09375 C 2.742188 -3.5 3.039062 -2.953125 3.375 -2.445312 C 5.652344 0.507812 9.113281 1.097656 12.65625 -0.125 C 12.910156 -0.210938 13.164062 -0.335938 13.375 -0.546875 C 15.609375 -2.320312 16.75 -4.429688 16.664062 -6.917969 C 16.664062 -8.351562 16.621094 -10.84375 16.621094 -13.121094 L 18.351562 -14.132812 C 18.605469 -14.257812 18.6875 -14.46875 18.6875 -14.722656 C 18.6875 -15.019531 18.605469 -15.1875 18.351562 -15.3125 Z M 18.351562 -15.3125 "/></g></g></g></svg>